<svg width="16" height="16" viewBox="0 0 16 16" fill="none" xmlns="http://www.w3.org/2000/svg">
<g id="chevron-right-large">
<rect width="16" height="16" fill="white" fill-opacity="0.01"/>
<path id="Vector" fill-rule="evenodd" clip-rule="evenodd" d="M9.99645 7.32997C10.1214 7.45498 10.1916 7.62452 10.1916 7.8013C10.1916 7.97807 10.1214 8.14761 9.99645 8.27263L6.93445 11.3346C6.81026 11.4563 6.64305 11.5241 6.46917 11.5232C6.29528 11.5224 6.12877 11.4529 6.00581 11.3299C5.88285 11.207 5.81339 11.0405 5.81251 10.8666C5.81163 10.6927 5.87941 10.5255 6.00112 10.4013L8.60112 7.8013L6.00112 5.2013C5.87941 5.07711 5.81163 4.9099 5.81251 4.73601C5.81339 4.56213 5.88285 4.39561 6.00581 4.27266C6.12877 4.1497 6.29528 4.08023 6.46917 4.07935C6.64305 4.07848 6.81026 4.14626 6.93445 4.26796L9.99645 7.32997Z" fill="#495057"/>
</g>
</svg>
