<svg width="16" height="16" viewBox="0 0 16 16" fill="none" xmlns="http://www.w3.org/2000/svg">
<g id="copy">
<rect width="16" height="16" fill="white" fill-opacity="0.01"/>
<g id="Vector">
<path d="M6.66634 12.6667H11.9997V5.33333H6.66634V12.6667ZM5.33301 5.328C5.33301 4.59467 5.93434 4 6.67234 4H11.9937C12.7337 4 13.333 4.59533 13.333 5.328V12.672C13.333 13.4053 12.7317 14 11.9937 14H6.67301C6.49782 14.0008 6.3242 13.9671 6.16205 13.9008C5.9999 13.8344 5.8524 13.7368 5.72797 13.6135C5.60354 13.4902 5.50461 13.3436 5.43685 13.182C5.36908 13.0205 5.33379 12.8472 5.33301 12.672V5.328Z" fill="#495057"/>
<path d="M3.33301 10.6667V3.328C3.33301 2.59467 3.93434 2 4.67234 2H9.99967V10.6667H3.33301ZM4.66634 10.6667H9.99967V3.33333H4.66634V10.6667Z" fill="#495057"/>
</g>
</g>
</svg>
