<svg width="16" height="16" viewBox="0 0 16 16" fill="none" xmlns="http://www.w3.org/2000/svg">
<g id="custom">
<rect width="16" height="16" fill="white" fill-opacity="0.01"/>
<path id="Vector" fill-rule="evenodd" clip-rule="evenodd" d="M8.66655 7.33322V4.66789C8.66655 4.49108 8.59632 4.32151 8.47129 4.19648C8.34627 4.07146 8.1767 4.00122 7.99989 4.00122C7.82308 4.00122 7.65351 4.07146 7.52848 4.19648C7.40346 4.32151 7.33322 4.49108 7.33322 4.66789V7.33322H4.66789C4.49108 7.33322 4.32151 7.40346 4.19648 7.52848C4.07146 7.65351 4.00122 7.82308 4.00122 7.99989C4.00122 8.1767 4.07146 8.34627 4.19648 8.47129C4.32151 8.59632 4.49108 8.66655 4.66789 8.66655H7.33322V11.3319C7.33322 11.5087 7.40346 11.6783 7.52848 11.8033C7.65351 11.9283 7.82308 11.9986 7.99989 11.9986C8.1767 11.9986 8.34627 11.9283 8.47129 11.8033C8.59632 11.6783 8.66655 11.5087 8.66655 11.3319V8.66655H11.3319C11.5087 8.66655 11.6783 8.59632 11.8033 8.47129C11.9283 8.34627 11.9986 8.1767 11.9986 7.99989C11.9986 7.82308 11.9283 7.65351 11.8033 7.52848C11.6783 7.40346 11.5087 7.33322 11.3319 7.33322H8.66655Z" fill="#556AEB"/>
</g>
</svg>
