<svg width="13" height="20" viewBox="0 0 13 20" fill="none" xmlns="http://www.w3.org/2000/svg">
<path id="$" d="M5.96523 19.5V0.5H7.18242V19.5H5.96523ZM9.47578 6.57852C9.40651 5.93034 9.11458 5.42565 8.6 5.06445C8.09036 4.70326 7.42734 4.52266 6.61094 4.52266C6.03698 4.52266 5.54466 4.60925 5.13398 4.78242C4.72331 4.9556 4.40911 5.19062 4.19141 5.4875C3.9737 5.78438 3.86237 6.12331 3.85742 6.5043C3.85742 6.82096 3.92917 7.09557 4.07266 7.32813C4.22109 7.56068 4.42148 7.75859 4.67383 7.92188C4.92617 8.08021 5.20573 8.2138 5.5125 8.32266C5.81927 8.43151 6.12852 8.52305 6.44023 8.59727L7.86523 8.95352C8.43919 9.08711 8.99088 9.26771 9.52031 9.49531C10.0547 9.72292 10.5322 10.0099 10.9527 10.3562C11.3783 10.7026 11.7147 11.1207 11.9621 11.6105C12.2095 12.1004 12.3332 12.6743 12.3332 13.3324C12.3332 14.223 12.1056 15.0073 11.6504 15.6852C11.1952 16.3581 10.5371 16.885 9.67617 17.266C8.82018 17.6421 7.78359 17.8301 6.56641 17.8301C5.38385 17.8301 4.35716 17.647 3.48633 17.2809C2.62044 16.9147 1.94258 16.3803 1.45273 15.6777C0.967838 14.9751 0.705599 14.1191 0.666016 13.1098H3.375C3.41458 13.6392 3.57786 14.0796 3.86484 14.4309C4.15182 14.7822 4.52539 15.0444 4.98555 15.2176C5.45065 15.3908 5.97018 15.4773 6.54414 15.4773C7.14284 15.4773 7.66732 15.3883 8.11758 15.2102C8.57279 15.0271 8.92904 14.7747 9.18633 14.4531C9.44362 14.1266 9.57474 13.7456 9.57969 13.3102C9.57474 12.9143 9.45846 12.5878 9.23086 12.3305C9.00325 12.0682 8.68411 11.8505 8.27344 11.6773C7.86771 11.4992 7.39271 11.3409 6.84844 11.2023L5.11914 10.757C3.86732 10.4354 2.87773 9.94805 2.15039 9.29492C1.42799 8.63685 1.0668 7.76354 1.0668 6.675C1.0668 5.77943 1.30924 4.99518 1.79414 4.32227C2.28398 3.64935 2.94948 3.12734 3.79062 2.75625C4.63177 2.38021 5.58424 2.19219 6.64805 2.19219C7.72669 2.19219 8.67174 2.38021 9.4832 2.75625C10.2996 3.12734 10.9404 3.6444 11.4055 4.30742C11.8706 4.9655 12.1105 5.72253 12.1254 6.57852H9.47578Z" fill="#495057"/>
</svg>
