<svg width="14" height="14" viewBox="0 0 14 14" fill="none" xmlns="http://www.w3.org/2000/svg">
<g id="info">
<rect width="14" height="14" fill="white" fill-opacity="0.01"/>
<path id="Vector" fill-rule="evenodd" clip-rule="evenodd" d="M7.00008 12.8334C3.77833 12.8334 1.16675 10.2218 1.16675 7.00008C1.16675 3.77833 3.77833 1.16675 7.00008 1.16675C10.2218 1.16675 12.8334 3.77833 12.8334 7.00008C12.8334 10.2218 10.2218 12.8334 7.00008 12.8334ZM7.58341 4.66675C7.58341 4.98891 7.32225 5.25008 7.00008 5.25008C6.67791 5.25008 6.41675 4.98891 6.41675 4.66675C6.41675 4.34458 6.67791 4.08341 7.00008 4.08341C7.32225 4.08341 7.58341 4.34458 7.58341 4.66675ZM7.00008 5.83341C7.32225 5.83341 7.58341 6.09458 7.58341 6.41675V9.33341C7.58341 9.65558 7.32225 9.91675 7.00008 9.91675C6.67791 9.91675 6.41675 9.65558 6.41675 9.33341V6.41675C6.41675 6.09458 6.67791 5.83341 7.00008 5.83341Z" fill="#495057"/>
</g>
</svg>
