<svg width="16" height="17" viewBox="0 0 16 17" fill="none" xmlns="http://www.w3.org/2000/svg">
<g id="roadmap">
<rect width="16" height="16" transform="translate(0 0.5)" fill="white" fill-opacity="0.01"/>
<path id="Vector" fill-rule="evenodd" clip-rule="evenodd" d="M4 1.83325H10.6667C11.1971 1.83325 11.7058 2.04397 12.0809 2.41904C12.456 2.79411 12.6667 3.30282 12.6667 3.83325C12.6667 4.36368 12.456 4.87239 12.0809 5.24747C11.7058 5.62254 11.1971 5.83325 10.6667 5.83325H4C3.46957 5.83325 2.96086 5.62254 2.58579 5.24747C2.21071 4.87239 2 4.36368 2 3.83325C2 3.30282 2.21071 2.79411 2.58579 2.41904C2.96086 2.04397 3.46957 1.83325 4 1.83325ZM4 3.16659C3.82319 3.16659 3.65362 3.23682 3.5286 3.36185C3.40357 3.48687 3.33333 3.65644 3.33333 3.83325C3.33333 4.01006 3.40357 4.17963 3.5286 4.30466C3.65362 4.42968 3.82319 4.49992 4 4.49992H10.6667C10.8435 4.49992 11.013 4.42968 11.1381 4.30466C11.2631 4.17963 11.3333 4.01006 11.3333 3.83325C11.3333 3.65644 11.2631 3.48687 11.1381 3.36185C11.013 3.23682 10.8435 3.16659 10.6667 3.16659H4ZM6.66667 6.49992H12C12.5304 6.49992 13.0391 6.71063 13.4142 7.0857C13.7893 7.46078 14 7.96949 14 8.49992C14 9.03035 13.7893 9.53906 13.4142 9.91413C13.0391 10.2892 12.5304 10.4999 12 10.4999H6.66667C6.13623 10.4999 5.62753 10.2892 5.25245 9.91413C4.87738 9.53906 4.66667 9.03035 4.66667 8.49992C4.66667 7.96949 4.87738 7.46078 5.25245 7.0857C5.62753 6.71063 6.13623 6.49992 6.66667 6.49992ZM6.66667 7.83325C6.48986 7.83325 6.32029 7.90349 6.19526 8.02851C6.07024 8.15354 6 8.32311 6 8.49992C6 8.67673 6.07024 8.8463 6.19526 8.97132C6.32029 9.09635 6.48986 9.16659 6.66667 9.16659H12C12.1768 9.16659 12.3464 9.09635 12.4714 8.97132C12.5964 8.8463 12.6667 8.67673 12.6667 8.49992C12.6667 8.32311 12.5964 8.15354 12.4714 8.02851C12.3464 7.90349 12.1768 7.83325 12 7.83325H6.66667ZM4 11.1666H8C8.53043 11.1666 9.03914 11.3773 9.41421 11.7524C9.78929 12.1274 10 12.6362 10 13.1666C10 13.697 9.78929 14.2057 9.41421 14.5808C9.03914 14.9559 8.53043 15.1666 8 15.1666H4C3.46957 15.1666 2.96086 14.9559 2.58579 14.5808C2.21071 14.2057 2 13.697 2 13.1666C2 12.6362 2.21071 12.1274 2.58579 11.7524C2.96086 11.3773 3.46957 11.1666 4 11.1666ZM4 12.4999C3.82319 12.4999 3.65362 12.5702 3.5286 12.6952C3.40357 12.8202 3.33333 12.9898 3.33333 13.1666C3.33333 13.3434 3.40357 13.513 3.5286 13.638C3.65362 13.763 3.82319 13.8333 4 13.8333H8C8.17681 13.8333 8.34638 13.763 8.4714 13.638C8.59643 13.513 8.66667 13.3434 8.66667 13.1666C8.66667 12.9898 8.59643 12.8202 8.4714 12.6952C8.34638 12.5702 8.17681 12.4999 8 12.4999H4Z" fill="#495057"/>
</g>
</svg>
