<svg width="16" height="16" viewBox="0 0 16 16" fill="none" xmlns="http://www.w3.org/2000/svg">
<g id="trash">
<rect width="16" height="16" fill="white" fill-opacity="0.01"/>
<path id="Vector" fill-rule="evenodd" clip-rule="evenodd" d="M3.33366 3.33341C3.15685 3.33341 2.98728 3.40365 2.86225 3.52868C2.73723 3.6537 2.66699 3.82327 2.66699 4.00008V4.66675H13.3337V4.00008C13.3337 3.82327 13.2634 3.6537 13.1384 3.52868C13.0134 3.40365 12.8438 3.33341 12.667 3.33341H3.33366ZM10.767 13.3334H5.23033C5.07262 13.3334 4.92003 13.2774 4.79968 13.1755C4.67934 13.0736 4.59901 12.9323 4.57299 12.7767L3.33366 5.33341H12.667L11.4243 12.7774C11.3983 12.9329 11.3179 13.0741 11.1976 13.1759C11.0772 13.2777 10.9246 13.3335 10.767 13.3334ZM6.00033 3.00008C6.00031 2.91271 6.03461 2.82882 6.09583 2.76648C6.15705 2.70413 6.2403 2.66832 6.32766 2.66675H9.67299C9.76035 2.66832 9.8436 2.70413 9.90482 2.76648C9.96604 2.82882 10.0003 2.91271 10.0003 3.00008V3.33341H6.00033V3.00008Z" fill="#495057"/>
</g>
</svg>
