<svg width="16" height="16" viewBox="0 0 16 16" fill="none" xmlns="http://www.w3.org/2000/svg">
<g id="add-comment">
<rect width="16" height="16" fill="white" fill-opacity="0.01"/>
<g id="Vector">
<path fill-rule="evenodd" clip-rule="evenodd" d="M9.33333 2.79142C8.89378 2.70816 8.44737 2.66642 8 2.66675C4.69133 2.66675 2 4.91342 2 7.67542C2 10.4374 4.69133 12.6847 8 12.6847C8.94667 12.6847 9.84 12.4947 10.638 12.1674C11.3067 12.8487 12.1627 13.2154 12.798 13.3134L12.7993 13.3114C12.8344 13.3246 12.8713 13.332 12.9087 13.3334C12.9654 13.3334 13.0212 13.3193 13.0711 13.2925C13.121 13.2657 13.1636 13.2269 13.1948 13.1796C13.2261 13.1323 13.2452 13.078 13.2504 13.0216C13.2556 12.9651 13.2468 12.9083 13.2247 12.8561V12.8547C13.2247 12.8547 12.1827 11.3481 12.714 10.7774L12.6893 10.7907C13.5073 9.93475 14 8.85275 14 7.67542C14.0002 7.56128 13.9957 7.44719 13.9867 7.33342H12.648C12.6613 7.44608 12.668 7.56008 12.668 7.67542C12.668 9.70142 10.574 11.3488 8 11.3488C5.426 11.3488 3.332 9.70142 3.332 7.67542C3.332 5.65008 5.426 4.00208 8 4.00208C8.46333 4.00208 8.91067 4.05542 9.33333 4.15475V2.79142Z" fill="#495057"/>
<path d="M12.6667 3.33342C12.6667 2.96523 12.3682 2.66675 12 2.66675C11.6318 2.66675 11.3333 2.96523 11.3333 3.33342V6.00008C11.3333 6.36827 11.6318 6.66675 12 6.66675C12.3682 6.66675 12.6667 6.36827 12.6667 6.00008V3.33342Z" fill="#495057"/>
<path d="M13.3333 4.00008H10.6667C10.2985 4.00008 10 4.29856 10 4.66675C10 5.03494 10.2985 5.33342 10.6667 5.33342H13.3333C13.7015 5.33342 14 5.03494 14 4.66675C14 4.29856 13.7015 4.00008 13.3333 4.00008Z" fill="#495057"/>
</g>
</g>
</svg>
