<svg width="16" height="16" viewBox="0 0 16 16" fill="none" xmlns="http://www.w3.org/2000/svg">
<g id="arrow-right">
<rect width="16" height="16" fill="white" fill-opacity="0.01"/>
<path id="Vector" fill-rule="evenodd" clip-rule="evenodd" d="M7.86167 3.86203C7.79971 3.92389 7.75055 3.99736 7.71701 4.07823C7.68347 4.15911 7.66621 4.24581 7.66621 4.33336C7.66621 4.42092 7.68347 4.50761 7.71701 4.58849C7.75055 4.66937 7.79971 4.74284 7.86167 4.80469L10.3903 7.33336H3.99967C3.82286 7.33336 3.65329 7.4036 3.52827 7.52862C3.40325 7.65365 3.33301 7.82322 3.33301 8.00003C3.33301 8.17684 3.40325 8.34641 3.52827 8.47143C3.65329 8.59646 3.82286 8.6667 3.99967 8.6667H10.3903L7.86167 11.1954C7.79971 11.2572 7.75055 11.3307 7.71701 11.4116C7.68347 11.4924 7.66621 11.5791 7.66621 11.6667C7.66621 11.7543 7.68347 11.8409 7.71701 11.9218C7.75055 12.0027 7.79971 12.0762 7.86167 12.138C8.12167 12.398 8.54434 12.398 8.80501 12.138L12.471 8.47136C12.5917 8.35109 12.6617 8.18905 12.6663 8.01869V7.98069C12.6616 7.81056 12.5916 7.64876 12.471 7.5287L8.80501 3.86203C8.74309 3.80004 8.66957 3.75087 8.58863 3.71732C8.5077 3.68377 8.42095 3.6665 8.33334 3.6665C8.24573 3.6665 8.15898 3.68377 8.07805 3.71732C7.99712 3.75087 7.92359 3.80004 7.86167 3.86203Z" fill="#495057"/>
</g>
</svg>
