<svg width="24" height="24" viewBox="0 0 24 24" fill="none" xmlns="http://www.w3.org/2000/svg">
<g id="custom">
<rect width="24" height="24" fill="white" fill-opacity="0.01"/>
<path id="Vector" fill-rule="evenodd" clip-rule="evenodd" d="M13 11V7.00195C13 6.73674 12.8946 6.48238 12.7071 6.29485C12.5196 6.10731 12.2652 6.00195 12 6.00195C11.7348 6.00195 11.4804 6.10731 11.2929 6.29485C11.1054 6.48238 11 6.73674 11 7.00195V11H7.002C6.73678 11 6.48243 11.1053 6.29489 11.2928C6.10736 11.4804 6.002 11.7347 6.002 12C6.002 12.2652 6.10736 12.5195 6.29489 12.7071C6.48243 12.8946 6.73678 13 7.002 13H11V16.998C11 17.2632 11.1054 17.5175 11.2929 17.7051C11.4804 17.8926 11.7348 17.998 12 17.998C12.2652 17.998 12.5196 17.8926 12.7071 17.7051C12.8946 17.5175 13 17.2632 13 16.998V13H16.998C17.2632 13 17.5176 12.8946 17.7051 12.7071C17.8926 12.5195 17.998 12.2652 17.998 12C17.998 11.7347 17.8926 11.4804 17.7051 11.2928C17.5176 11.1053 17.2632 11 16.998 11H13Z" fill="#495057"/>
</g>
</svg>
