<svg width="16" height="16" viewBox="0 0 16 16" fill="none" xmlns="http://www.w3.org/2000/svg">
<g id="export">
<rect width="16" height="16" transform="matrix(-1 0 0 -1 16 16)" fill="white" fill-opacity="0.01"/>
<path id="Vector" d="M7.3334 11.6727L7.3334 5.33337C7.3334 5.15655 7.40364 4.98698 7.52866 4.86196C7.65368 4.73694 7.82325 4.6667 8.00006 4.6667C8.17688 4.6667 8.34644 4.73694 8.47147 4.86196C8.59649 4.98698 8.66673 5.15655 8.66673 5.33337L8.66673 11.6727L9.4774 10.8687C9.60857 10.739 9.78559 10.6662 9.97006 10.6662C10.1545 10.6662 10.3316 10.739 10.4627 10.8687C10.5274 10.9325 10.5788 11.0085 10.6138 11.0924C10.6489 11.1762 10.6669 11.2662 10.6669 11.357C10.6669 11.4479 10.6489 11.5379 10.6138 11.6217C10.5788 11.7055 10.5274 11.7815 10.4627 11.8454L8.49273 13.798C8.36156 13.9277 8.18453 14.0005 8.00006 14.0005C7.81559 14.0005 7.63857 13.9277 7.5074 13.798L5.5374 11.8447C5.2654 11.5754 5.2654 11.138 5.5374 10.8687C5.66857 10.739 5.84559 10.6662 6.03006 10.6662C6.21454 10.6662 6.39156 10.739 6.52273 10.8687L7.3334 11.6734V11.6727ZM10.0001 10V8.6667H11.3334C11.3347 8.6667 11.3334 3.33936 11.3334 3.33936C11.3334 3.3367 4.67073 3.33336 4.67073 3.33336C4.66873 3.33336 4.66673 8.6607 4.66673 8.6607C4.66673 8.6647 6.00006 8.6667 6.00006 8.6667L6.00006 10L4.66673 10C3.93006 10 3.3334 9.3987 3.3334 8.6607L3.3334 3.33936C3.3334 2.59936 3.9314 2.00003 4.67073 2.00003L11.3294 2.00003C11.6843 2.00056 12.0244 2.1419 12.2752 2.39302C12.5259 2.64414 12.6667 2.9845 12.6667 3.33936V8.66003C12.6676 8.83569 12.6338 9.00979 12.5672 9.17232C12.5005 9.33486 12.4025 9.48263 12.2786 9.60715C12.1547 9.73167 12.0074 9.83048 11.8452 9.8979C11.683 9.96533 11.5091 10 11.3334 10H10.0001Z" fill="#495057"/>
</g>
</svg>
