<svg width="16" height="16" viewBox="0 0 16 16" fill="none" xmlns="http://www.w3.org/2000/svg">
<g id="marketplace">
<rect width="16" height="16" fill="white" fill-opacity="0.01"/>
<path id="Vector" fill-rule="evenodd" clip-rule="evenodd" d="M2.66667 7.33333H4V10.6667H2.66667V7.33333ZM3.03733 2.592C3.20067 2.26533 3.63333 2 4.004 2H11.9953C12.366 2 12.7993 2.26533 12.962 2.592L14 4.66667H2L3.03733 2.592ZM2 4.66667H14V5.33333H2V4.66667ZM12 7.33333H13.3333V10.6667H12V7.33333ZM2 5.33333C2.09333 6.08533 2.72933 6.66667 3.5 6.66667C4.27067 6.66667 4.90667 6.08533 5 5.33333H2ZM5 5.33333C5.09333 6.08533 5.72933 6.66667 6.5 6.66667C7.27067 6.66667 7.90667 6.08533 8 5.33333H5ZM8 5.33333C8.09333 6.08533 8.72933 6.66667 9.5 6.66667C10.2707 6.66667 10.9067 6.08533 11 5.33333H8ZM11 5.33333C11.0933 6.08533 11.7293 6.66667 12.5 6.66667C13.2707 6.66667 13.9067 6.08533 14 5.33333H11ZM2.66667 10.6667H13.3333V12.6633C13.3342 13.0168 13.1947 13.3562 12.9454 13.6069C12.6961 13.8575 12.3575 13.9989 12.004 14H3.996C3.82089 13.9997 3.64754 13.9649 3.4859 13.8976C3.32426 13.8302 3.17749 13.7316 3.05401 13.6075C2.93052 13.4833 2.83275 13.336 2.76628 13.174C2.69982 13.012 2.66596 12.8384 2.66667 12.6633V10.6667Z" fill="#495057"/>
</g>
</svg>
