<svg width="14" height="16" viewBox="0 0 14 16" fill="none" xmlns="http://www.w3.org/2000/svg">
<path id="%" d="M7.4913 12.221V11.5087C7.4913 10.9679 7.60562 10.4711 7.83426 10.0182C8.06729 9.5609 8.40366 9.19596 8.84335 8.92335C9.28744 8.64635 9.82826 8.50784 10.4658 8.50784C11.1122 8.50784 11.6552 8.64415 12.0949 8.91676C12.539 9.18936 12.8731 9.55431 13.0974 10.0116C13.326 10.4645 13.4403 10.9635 13.4403 11.5087V12.221C13.4403 12.7619 13.326 13.2609 13.0974 13.7182C12.8687 14.1711 12.5324 14.5338 12.0883 14.8064C11.6442 15.0834 11.1034 15.2219 10.4658 15.2219C9.81946 15.2219 9.27644 15.0834 8.83675 14.8064C8.39706 14.5338 8.0629 14.1711 7.83426 13.7182C7.60562 13.2609 7.4913 12.7619 7.4913 12.221ZM9.41055 11.5087V12.221C9.41055 12.5332 9.4853 12.8278 9.63479 13.1048C9.78868 13.3818 10.0657 13.5203 10.4658 13.5203C10.8659 13.5203 11.1385 13.384 11.2836 13.1114C11.4331 12.8388 11.5079 12.542 11.5079 12.221V11.5087C11.5079 11.1878 11.4375 10.8888 11.2968 10.6118C11.1561 10.3348 10.8791 10.1963 10.4658 10.1963C10.0701 10.1963 9.79528 10.3348 9.64139 10.6118C9.4875 10.8888 9.41055 11.1878 9.41055 11.5087ZM0.55957 4.49127V3.77897C0.55957 3.23375 0.676088 2.7347 0.909125 2.28182C1.14216 1.82454 1.47852 1.4596 1.91822 1.18699C2.3623 0.91438 2.89873 0.778076 3.52748 0.778076C4.17823 0.778076 4.72344 0.91438 5.16314 1.18699C5.60283 1.4596 5.93699 1.82454 6.16563 2.28182C6.39427 2.7347 6.50859 3.23375 6.50859 3.77897V4.49127C6.50859 5.03648 6.39207 5.53553 6.15904 5.98841C5.9304 6.4413 5.59403 6.80404 5.14994 7.07665C4.71025 7.34486 4.16943 7.47897 3.52748 7.47897C2.88554 7.47897 2.34252 7.34266 1.89843 7.07005C1.45874 6.79305 1.12457 6.4303 0.895934 5.98182C0.671692 5.52894 0.55957 5.03209 0.55957 4.49127ZM2.49201 3.77897V4.49127C2.49201 4.81224 2.56676 5.10903 2.71625 5.38164C2.87015 5.65425 3.14056 5.79055 3.52748 5.79055C3.932 5.79055 4.20681 5.65425 4.3519 5.38164C4.5014 5.10903 4.57615 4.81224 4.57615 4.49127V3.77897C4.57615 3.45799 4.5058 3.159 4.3651 2.882C4.22439 2.60499 3.94519 2.46649 3.52748 2.46649C3.13616 2.46649 2.86575 2.60719 2.71625 2.88859C2.56676 3.16999 2.49201 3.46679 2.49201 3.77897ZM1.43016 14.7537L10.7164 1.24635H12.4444L3.15814 14.7537H1.43016Z" fill="#495057"/>
</svg>
