<svg width="40" height="24" viewBox="0 0 40 24" fill="none" xmlns="http://www.w3.org/2000/svg">
<rect x="0.5" y="0.5" width="39" height="23" rx="3.5" stroke="#ADB5BD" stroke-dasharray="2 2"/>
<rect width="16" height="16" transform="translate(4 4)" fill="white" fill-opacity="0.01"/>
<path d="M10.6663 16.6667H15.9997V9.33333H10.6663V16.6667ZM9.33301 9.328C9.33301 8.59467 9.93434 8 10.6723 8H15.9937C16.7337 8 17.333 8.59533 17.333 9.328V16.672C17.333 17.4053 16.7317 18 15.9937 18H10.673C10.4978 18.0008 10.3242 17.9671 10.162 17.9008C9.9999 17.8344 9.8524 17.7368 9.72797 17.6135C9.60354 17.4902 9.50461 17.3436 9.43685 17.182C9.36908 17.0205 9.33379 16.8472 9.33301 16.672V9.328Z" fill="#ADB5BD"/>
<path d="M7.33301 14.6667V7.328C7.33301 6.59467 7.93434 6 8.67234 6H13.9997V14.6667H7.33301ZM8.66634 14.6667H13.9997V7.33333H8.66634V14.6667Z" fill="#ADB5BD"/>
<rect width="16" height="16" transform="translate(20 4)" fill="white" fill-opacity="0.01"/>
<path fill-rule="evenodd" clip-rule="evenodd" d="M28.6663 11.3332V8.66789C28.6663 8.49108 28.5961 8.32151 28.471 8.19648C28.346 8.07146 28.1765 8.00122 27.9996 8.00122C27.8228 8.00122 27.6533 8.07146 27.5282 8.19648C27.4032 8.32151 27.333 8.49108 27.333 8.66789V11.3332H24.6676C24.4908 11.3332 24.3213 11.4035 24.1962 11.5285C24.0712 11.6535 24.001 11.8231 24.001 11.9999C24.001 12.1767 24.0712 12.3463 24.1962 12.4713C24.3213 12.5963 24.4908 12.6666 24.6676 12.6666H27.333V15.3319C27.333 15.5087 27.4032 15.6783 27.5282 15.8033C27.6533 15.9283 27.8228 15.9986 27.9996 15.9986C28.1765 15.9986 28.346 15.9283 28.471 15.8033C28.5961 15.6783 28.6663 15.5087 28.6663 15.3319V12.6666H31.3316C31.5085 12.6666 31.678 12.5963 31.803 12.4713C31.9281 12.3463 31.9983 12.1767 31.9983 11.9999C31.9983 11.8231 31.9281 11.6535 31.803 11.5285C31.678 11.4035 31.5085 11.3332 31.3316 11.3332H28.6663Z" fill="#ADB5BD"/>
</svg>
