<svg width="16" height="16" viewBox="0 0 16 16" fill="none" xmlns="http://www.w3.org/2000/svg">
<g id="question-circle">
<rect width="16" height="16" fill="white" fill-opacity="0.01"/>
<path id="Vector" fill-rule="evenodd" clip-rule="evenodd" d="M14.6667 7.99992C14.6667 11.6818 11.6819 14.6666 8 14.6666C4.3181 14.6666 1.33333 11.6818 1.33333 7.99992C1.33333 4.31802 4.3181 1.33325 8 1.33325C11.6819 1.33325 14.6667 4.31802 14.6667 7.99992ZM9.8856 4.77323C10.2337 5.11955 10.4787 5.55578 10.5933 6.03325C10.7482 6.67194 10.6612 7.34535 10.349 7.92367C10.0368 8.50199 9.5216 8.94427 8.90266 9.16525C8.766 9.21391 8.66933 9.33525 8.66933 9.47991V10.0012C8.66933 10.1784 8.59895 10.3483 8.47368 10.4736C8.3484 10.5989 8.17849 10.6692 8.00133 10.6692C7.82416 10.6692 7.65425 10.5989 7.52898 10.4736C7.40371 10.3483 7.33333 10.1784 7.33333 10.0012V8.65858C7.33561 8.48328 7.40685 8.31593 7.53163 8.19277C7.65638 8.06964 7.8246 8.0006 7.99988 8.00058H7.99533C8.73199 8.00058 9.33066 7.40191 9.33066 6.66725C9.32269 6.31818 9.17838 5.9861 8.92862 5.7421C8.67886 5.4981 8.34351 5.36157 7.99434 5.36175C7.64518 5.36192 7.30996 5.49878 7.06045 5.74303C6.81093 5.98728 6.66695 6.3195 6.65933 6.66858C6.658 7.03591 6.35933 7.33391 5.99133 7.33391C5.82679 7.3329 5.66854 7.27059 5.54748 7.15915C5.42642 7.04771 5.35126 6.89514 5.33666 6.73125L5.33333 6.63325C5.34466 4.96391 6.88066 3.67591 8.62199 4.07191C9.10004 4.1841 9.53751 4.4269 9.8856 4.77323ZM8.66666 11.9999C8.66666 12.3681 8.36818 12.6666 8 12.6666C7.6318 12.6666 7.33333 12.3681 7.33333 11.9999C7.33333 11.6317 7.6318 11.3332 8 11.3332C8.36818 11.3332 8.66666 11.6317 8.66666 11.9999Z" fill="#004899"/>
</g>
</svg>
