<svg width="24" height="24" viewBox="0 0 24 24" fill="none" xmlns="http://www.w3.org/2000/svg">
<g id="vid-full-screen-off">
<rect width="24" height="24" fill="white" fill-opacity="0.01"/>
<g id="Vector">
<path d="M9 15.0031V17.9981C9 18.2633 9.10536 18.5176 9.29289 18.7052C9.48043 18.8927 9.73478 18.9981 10 18.9981C10.2652 18.9981 10.5196 18.8927 10.7071 18.7052C10.8946 18.5176 11 18.2633 11 17.9981V14.1021C11 13.4941 10.507 13.0001 9.9 13.0001H6C5.73438 13.0001 5.47965 13.1056 5.29183 13.2934C5.10401 13.4812 4.9985 13.736 4.9985 14.0016C4.9985 14.2672 5.10401 14.5219 5.29183 14.7097C5.47965 14.8976 5.73438 15.0031 6 15.0031H9Z" fill="#495057"/>
<path d="M3.74 20.2941C3.92619 20.4808 4.17877 20.5862 4.44247 20.5871C4.70616 20.588 4.95949 20.4845 5.147 20.2991L10.299 15.1471C10.4837 14.9592 10.5867 14.706 10.5858 14.4425C10.5849 14.1791 10.48 13.9266 10.294 13.7401L10.26 13.7061C10.0738 13.5193 9.82122 13.414 9.55753 13.413C9.29384 13.4121 9.04051 13.5157 8.853 13.7011L3.701 18.8531C3.51632 19.041 3.41325 19.2941 3.41419 19.5576C3.41513 19.8211 3.51999 20.0735 3.706 20.2601L3.74 20.2941Z" fill="#495057"/>
<path fill-rule="evenodd" clip-rule="evenodd" d="M19.067 3.32107L13.32 9.06607C13.1136 9.27555 12.9984 9.55806 12.9993 9.8521C13.0003 10.1461 13.1173 10.4279 13.325 10.6361L13.361 10.6731C13.5688 10.8818 13.8509 10.9995 14.1455 11.0005C14.44 11.0014 14.7229 10.8855 14.932 10.6781L20.679 4.93407C20.885 4.72434 20.9999 4.4418 20.9988 4.14784C20.9976 3.85388 20.8806 3.57223 20.673 3.36407L20.636 3.32707C20.4277 3.11974 20.1461 3.00284 19.8522 3.00172C19.5583 3.00059 19.2769 3.11534 19.067 3.32107Z" fill="#495057"/>
<path fill-rule="evenodd" clip-rule="evenodd" d="M13 6.00207V9.89807C13 10.5061 13.493 11.0001 14.1 11.0001H18C18.2656 11.0001 18.5203 10.8946 18.7082 10.7067C18.896 10.5189 19.0015 10.2642 19.0015 9.99857C19.0015 9.73296 18.896 9.47822 18.7082 9.29041C18.5203 9.10259 18.2656 8.99707 18 8.99707H15V6.00207C15 5.73686 14.8946 5.4825 14.7071 5.29497C14.5196 5.10743 14.2652 5.00207 14 5.00207C13.7348 5.00207 13.4804 5.10743 13.2929 5.29497C13.1054 5.4825 13 5.73686 13 6.00207Z" fill="#495057"/>
</g>
</g>
</svg>
